<svg xmlns="http://www.w3.org/2000/svg">
      <symbol id="services__about" viewBox="0 0 31.719 40">
        <g>
          <path
            d="M347.712,1212H316v-40.01h22.463l9.249,9.34V1212Zm-9.249-36.63v5.96h5.9Zm6.606,8.63H335.82v-9.34H318.643v34.67h26.426V1184Zm-3.964,8h-18.5v-2.67h18.5V1192Zm0,5.33h-18.5v-2.66h18.5v2.66Zm0,5.34h-18.5V1200h18.5v2.67Z"
            transform="translate(-316 -1172)"
          />
        </g>
      </symbol>
      <symbol id="services__wedding" viewBox="0 0 48 40.97">
        <g>
          <path
            d="M575.974,1174.17c5.968,0,10.807,4.43,10.807,9.9a9.477,9.477,0,0,1-3.328,7.13L566,1207.86l-17.767-16.94a9.456,9.456,0,0,1-3.014-6.85c0-5.47,4.838-9.9,10.807-9.9A11.07,11.07,0,0,1,566,1180.5a10.742,10.742,0,0,1,9.95-6.35m0.647-3.14a13.4,13.4,0,0,0-10.6,4.7,13.4,13.4,0,0,0-10.6-4.7c-7.391,0-13.4,5.72-13.4,12.76a12.387,12.387,0,0,0,3.737,8.83l18.9,18.08,1.362,1.3,1.361-1.3,18.544-17.74a12.338,12.338,0,0,0,4.1-9.17c0-7.04-6.012-12.76-13.4-12.76h0Z"
            transform="translate(-542 -1171)"
          />
        </g>
      </symbol>
      <symbol id="services__party" viewBox="0 0 34 40">
        <g>
          <path
            d="M783,1212v-18.67h5.231v-10.67h10.478l-4.223-4.34a3.784,3.784,0,0,1-.427-4.61h0a3.613,3.613,0,0,1,3.056-1.71,3.7,3.7,0,0,0,5.768,0,3.614,3.614,0,0,1,3.056,1.71h0a3.782,3.782,0,0,1,.591,2.02,3.738,3.738,0,0,1-1.114,2.69l-4.126,4.24h10.478v10.67H817V1212H783Zm14.544-37.32a2.714,2.714,0,0,0-.292.02H797.7A0.89,0.89,0,0,0,797.544,1174.68Zm4.831,0h0a1.116,1.116,0,0,0-.177.02h0.491A3.027,3.027,0,0,0,802.375,1174.68Zm1.541,1.7a1.471,1.471,0,0,0-1.215-1.68h-0.515a4.537,4.537,0,0,0-2.186,1.34,5.766,5.766,0,0,0-2.293-1.34h-0.47a1.516,1.516,0,0,0-1.153,1.71,1.919,1.919,0,0,0,.843,1.26l3.073,3.08,2.94-2.91A2.3,2.3,0,0,0,803.916,1176.38Zm5.238,8.95H790.846v8h18.308v-8Zm5.231,10.67h-28.77v6.6a3.385,3.385,0,0,0,.677.06,3.294,3.294,0,0,0,3.258-3.33,3.328,3.328,0,0,1,0-.67h2.608a3.144,3.144,0,0,0,0,.67,3.26,3.26,0,1,0,6.518,0,3.248,3.248,0,0,1,0-.67h2.607a3.217,3.217,0,0,0,0,.67,3.26,3.26,0,1,0,6.518,0,3.328,3.328,0,0,1,0-.67h2.607a3.217,3.217,0,0,0,0,.67,3.294,3.294,0,0,0,3.259,3.33,1.616,1.616,0,0,0,.718-0.16V1196Zm0,9.24a3.046,3.046,0,0,1-.718.09,5.8,5.8,0,0,1-4.562-2.23,5.783,5.783,0,0,1-9.126,0,5.782,5.782,0,0,1-9.125,0,5.8,5.8,0,0,1-4.562,2.23,6.108,6.108,0,0,1-.677-0.06v4.06h28.77v-4.09Zm-3.976-6.58h0Z"
            transform="translate(-783 -1172)"
          />
        </g>
      </symbol>
      <symbol id="services__beauty-box" viewBox="0 0 40.06 40">
        <g>
          <path
            d="M1013.94,1212l2.67-40h34.72l2.67,40h-40.06Zm34.72-37.34h-29.38l-2.67,34.67h34.72Zm-20.03,8h-1.34s-1.24,10.65,6.68,10.67c7.9,0.02,6.68-10.67,6.68-10.67h-1.34V1180h5.34v2.66h-1.33s1.96,13.31-9.35,13.34c-11.25.02-9.35-13.34-9.35-13.34h-1.33V1180h5.34v2.66Z"
            transform="translate(-1013.94 -1172)"
          />
        </g>
      </symbol>
      <symbol id="services__course" viewBox="0 0 40.06 40">
        <g>
          <path
            d="M1250.21,1212v-6.67h-2.67v-2.67h2.67v-5.33h-2.67v-2.67h2.67v-5.33h-2.67v-2.67h2.67v-5.33h-2.67v-2.67h2.67V1172h37.39v40h-37.39Zm34.72-37.34h-32.05v4h2.67v2.67h-2.67v5.33h2.67v2.67h-2.67v5.33h2.67v2.67h-2.67v5.33h2.67v2.67h-2.67v4h32.05v-34.67Zm-8.02,4v10.67h-16.02v-10.67h16.02Zm-13.35,8h10.68v-5.33h-10.68v5.33Z"
            transform="translate(-1247.53 -1172)"
          />
        </g>
      </symbol>
    </svg>