<svg xmlns="http://www.w3.org/2000/svg">
      <symbol id="twitter" viewBox="0 0 512 512">
        <g>
          <path
            d="M512,97.248c-19.04,8.352-39.328,13.888-60.48,16.576c21.76-12.992,38.368-33.408,46.176-58.016
			      c-20.288,12.096-42.688,20.64-66.56,25.408C411.872,60.704,384.416,48,354.464,48c-58.112,0-104.896,47.168-104.896,104.992
			      c0,8.32,0.704,16.32,2.432,23.936c-87.264-4.256-164.48-46.08-216.352-109.792c-9.056,15.712-14.368,33.696-14.368,53.056
			      c0,36.352,18.72,68.576,46.624,87.232c-16.864-0.32-33.408-5.216-47.424-12.928c0,0.32,0,0.736,0,1.152
			      c0,51.008,36.384,93.376,84.096,103.136c-8.544,2.336-17.856,3.456-27.52,3.456c-6.72,0-13.504-0.384-19.872-1.792
			      c13.6,41.568,52.192,72.128,98.08,73.12c-35.712,27.936-81.056,44.768-130.144,44.768c-8.608,0-16.864-0.384-25.12-1.44
			      C46.496,446.88,101.6,464,161.024,464c193.152,0,298.752-160,298.752-298.688c0-4.64-0.16-9.12-0.384-13.568
			      C480.224,136.96,497.728,118.496,512,97.248z"
          />
        </g>
      </symbol>
      <symbol id="facebook" viewBox="0 0 24 24">
        <g>
          <path
            d="m15.997 3.985h2.191v-3.816c-.378-.052-1.678-.169-3.192-.169-3.159 0-5.323 1.987-5.323 
            5.639v3.361h-3.486v4.266h3.486v10.734h4.274v-10.733h3.345l.531-4.266h-3.877v-2.939c.001-1.233.333-2.077 
            2.051-2.077z"
          />
        </g>
      </symbol>
      <symbol id="youtube" viewBox="-21 -117 682.66672 682">
        <g>
          <path
            d="m626.8125 64.035156c-7.375-27.417968-28.992188-49.03125-56.40625-56.414062-50.082031-13.703125-250.414062-13.703125-250.414062-13.703125s-200.324219 0-250.40625 13.183593c-26.886719 7.375-49.03125 29.519532-56.40625 56.933594-13.179688 50.078125-13.179688 153.933594-13.179688 153.933594s0 104.378906 13.179688 153.933594c7.382812 27.414062 28.992187 49.027344 56.410156 56.410156 50.605468 13.707031 250.410156 13.707031 250.410156 13.707031s200.324219 0 250.40625-13.183593c27.417969-7.378907 49.03125-28.992188 56.414062-56.40625 13.175782-50.082032 13.175782-153.933594 13.175782-153.933594s.527344-104.382813-13.183594-154.460938zm-370.601562 249.878906v-191.890624l166.585937 95.945312zm0 0"
          />
        </g>
      </symbol>
      <symbol id="instagram" viewBox="0 0 511 511.9">
        <g>
          <path
            d="m510.949219 150.5c-1.199219-27.199219-5.597657-45.898438-11.898438-62.101562-6.5-17.199219-16.5-32.597657-29.601562-45.398438-12.800781-13-28.300781-23.101562-45.300781-29.5-16.296876-6.300781-34.898438-10.699219-62.097657-11.898438-27.402343-1.300781-36.101562-1.601562-105.601562-1.601562s-78.199219.300781-105.5 1.5c-27.199219 1.199219-45.898438 5.601562-62.097657 11.898438-17.203124 6.5-32.601562 16.5-45.402343 29.601562-13 12.800781-23.097657 28.300781-29.5 45.300781-6.300781 16.300781-10.699219 34.898438-11.898438 62.097657-1.300781 27.402343-1.601562 36.101562-1.601562 105.601562s.300781 78.199219 1.5 105.5c1.199219 27.199219 5.601562 45.898438 11.902343 62.101562 6.5 17.199219 16.597657 32.597657 29.597657 45.398438 12.800781 13 28.300781 23.101562 45.300781 29.5 16.300781 6.300781 34.898438 10.699219 62.101562 11.898438 27.296876 1.203124 36 1.5 105.5 1.5s78.199219-.296876 105.5-1.5c27.199219-1.199219 45.898438-5.597657 62.097657-11.898438 34.402343-13.300781 61.601562-40.5 74.902343-74.898438 6.296876-16.300781 10.699219-34.902343 11.898438-62.101562 1.199219-27.300781 1.5-36 1.5-105.5s-.101562-78.199219-1.300781-105.5zm-46.097657 209c-1.101562 25-5.300781 38.5-8.800781 47.5-8.601562 22.300781-26.300781 40-48.601562 48.601562-9 3.5-22.597657 7.699219-47.5 8.796876-27 1.203124-35.097657 1.5-103.398438 1.5s-76.5-.296876-103.402343-1.5c-25-1.097657-38.5-5.296876-47.5-8.796876-11.097657-4.101562-21.199219-10.601562-29.398438-19.101562-8.5-8.300781-15-18.300781-19.101562-29.398438-3.5-9-7.699219-22.601562-8.796876-47.5-1.203124-27-1.5-35.101562-1.5-103.402343s.296876-76.5 1.5-103.398438c1.097657-25 5.296876-38.5 8.796876-47.5 4.101562-11.101562 10.601562-21.199219 19.203124-29.402343 8.296876-8.5 18.296876-15 29.398438-19.097657 9-3.5 22.601562-7.699219 47.5-8.800781 27-1.199219 35.101562-1.5 103.398438-1.5 68.402343 0 76.5.300781 103.402343 1.5 25 1.101562 38.5 5.300781 47.5 8.800781 11.097657 4.097657 21.199219 10.597657 29.398438 19.097657 8.5 8.300781 15 18.300781 19.101562 29.402343 3.5 9 7.699219 22.597657 8.800781 47.5 1.199219 27 1.5 35.097657 1.5 103.398438s-.300781 76.300781-1.5 103.300781zm0 0"
          />
          <path
            d="m256.449219 124.5c-72.597657 0-131.5 58.898438-131.5 131.5s58.902343 131.5 131.5 131.5c72.601562 0 131.5-58.898438 131.5-131.5s-58.898438-131.5-131.5-131.5zm0 216.800781c-47.097657 0-85.300781-38.199219-85.300781-85.300781s38.203124-85.300781 85.300781-85.300781c47.101562 0 85.300781 38.199219 85.300781 85.300781s-38.199219 85.300781-85.300781 85.300781zm0 0"
          />
          <path
            d="m423.851562 119.300781c0 16.953125-13.746093 30.699219-30.703124 30.699219-16.953126 0-30.699219-13.746094-30.699219-30.699219 0-16.957031 13.746093-30.699219 30.699219-30.699219 16.957031 0 30.703124 13.742188 30.703124 30.699219zm0 0"
          />
        </g>
      </symbol>
      <symbol id="email" viewBox="0 0 496 496">
        <g>
          <path
            d="M472,104H24c-13.255,0-24,10.745-24,24v240c0,13.255,10.745,24,24,24h448c13.255,0,24-10.745,24-24V128
				    C496,114.745,485.255,104,472,104z M480,368c0,4.418-3.582,8-8,8H24c-4.418,0-8-3.582-8-8V158.128l227.88,136.728
				    c2.535,1.523,5.705,1.523,8.24,0L480,158.128V368z M480,139.472l-232,139.2l-232-139.2V128c0-4.418,3.582-8,8-8h448
				    c4.418,0,8,3.582,8,8V139.472z"
          />
          <path
            d="M432,352h16c4.418,0,8-3.582,8-8v-32c0-4.418-3.582-8-8-8s-8,3.582-8,8v24h-8c-4.418,0-8,3.582-8,8S427.582,352,432,352z
				"
          />
          <path
            d="M384,352h16c4.418,0,8-3.582,8-8s-3.582-8-8-8h-16c-4.418,0-8,3.582-8,8S379.582,352,384,352z"
          />
        </g>
      </symbol>
      <symbol id="phone" viewBox="0 0 512 512">
        <g>
          <g>
            <path
              d="M298.667,25.6h-85.333c-4.71,0-8.533,3.823-8.533,8.533c0,4.71,3.823,8.533,8.533,8.533h85.333
			        c4.71,0,8.533-3.823,8.533-8.533C307.2,29.423,303.377,25.6,298.667,25.6z"
            />
          </g>
        </g>
        <g>
          <g>
            <path
              d="M358.4,25.6h-8.533c-4.71,0-8.533,3.823-8.533,8.533c0,4.71,3.823,8.533,8.533,8.533h8.533
			        c4.71,0,8.533-3.823,8.533-8.533C366.933,29.423,363.11,25.6,358.4,25.6z"
            />
          </g>
        </g>
        <g>
          <g>
            <path
              d="M266.598,435.2H245.41c-12.979,0-23.543,10.564-23.543,23.543v4.122c0,12.979,10.564,23.535,23.535,23.535h21.188
			        c12.979,0,23.543-10.556,23.543-23.535v-4.122C290.133,445.764,279.569,435.2,266.598,435.2z M273.067,462.865
			        c0,3.567-2.901,6.468-6.468,6.468H245.41c-3.575,0-6.477-2.901-6.477-6.468v-4.122c0-3.575,2.901-6.477,6.477-6.477h21.18
			        c3.576,0,6.477,2.901,6.477,6.477V462.865z"
            />
          </g>
        </g>
        <g>
          <g>
            <path
              d="M370.227,0H141.781c-17.007,0-30.848,13.841-30.848,30.848v450.304c0,17.007,13.841,30.848,30.848,30.848h228.437
			        c17.007,0,30.848-13.841,30.848-30.839V30.848C401.067,13.841,387.226,0,370.227,0z M384,481.152
			        c0,7.595-6.178,13.781-13.773,13.781H141.781c-7.603,0-13.781-6.187-13.781-13.773V30.848c0-7.595,6.178-13.781,13.781-13.781
			        h228.437c7.603,0,13.781,6.187,13.781,13.781V481.152z"
            />
          </g>
        </g>
        <g>
          <g>
            <path
              d="M392.533,51.2H119.467c-4.71,0-8.533,3.823-8.533,8.533v358.4c0,4.71,3.823,8.533,8.533,8.533h273.067
		        	c4.71,0,8.533-3.823,8.533-8.533v-358.4C401.067,55.023,397.244,51.2,392.533,51.2z M384,409.6H128V68.267h256V409.6z"
            />
          </g>
        </g>
      </symbol>
      <symbol id="location" viewBox="0 0 128 128">
        <g><path d="m80.229 82.863c.231-.376.462-.745.693-1.128 10.389-17.2 15.617-32.246 15.542-44.715a32.464 32.464 0 0 0 -64.927-.011c-.076 12.48 5.153 27.528 15.542 44.726.231.383.462.752.693 1.128-21.872 2.703-36.372 10.52-36.372 19.801 0 11.652 23.1 20.779 52.6 20.779s52.6-9.127 52.6-20.779c0-9.281-14.5-17.098-36.371-19.801zm-45.192-45.843a28.964 28.964 0 1 1 57.927.011c.15 24.858-23.09 55.517-28.964 62.869-5.874-7.352-29.115-38.012-28.963-62.88zm28.963 82.923c-29.371 0-49.1-8.935-49.1-17.279 0-7.4 14.629-14.285 34.934-16.518a185.3 185.3 0 0 0 12.833 17.654 1.748 1.748 0 0 0 2.666 0 185.3 185.3 0 0 0 12.834-17.654c20.3 2.233 34.934 9.114 34.934 16.518-.001 8.344-19.73 17.279-49.101 17.279z"/><path d="m49.692 109.807c-7.766-.994-14-2.744-17.548-4.925a1.75 1.75 0 1 0 -1.833 2.981c3.963 2.436 10.689 4.36 18.937 5.415a1.7 1.7 0 0 0 .224.014 1.75 1.75 0 0 0 .22-3.485z"/><path d="m66.939 110.643c-2.439.056-4.979.043-7.458-.048a1.75 1.75 0 1 0 -.129 3.5c1.538.056 3.1.085 4.648.085q1.527 0 3.021-.036a1.75 1.75 0 0 0 1.709-1.79 1.73 1.73 0 0 0 -1.791-1.711z"/><path d="m78.777 37.02a14.778 14.778 0 1 0 -14.777 14.78 14.795 14.795 0 0 0 14.777-14.78zm-26.055 0a11.278 11.278 0 1 1 11.278 11.28 11.29 11.29 0 0 1 -11.278-11.28z"/></g>
      </symbol>
      <symbol id="heart" viewBox="0 -28 512.00002 512">
        <path
          d="m471.382812 44.578125c-26.503906-28.746094-62.871093-44.578125-102.410156-44.578125-29.554687 
          0-56.621094 9.34375-80.449218 27.769531-12.023438 9.300781-22.917969 20.679688-32.523438 33.960938-9.601562-13.277344-20.5-24.660157-32.527344-33.960938-23.824218-18.425781-50.890625-27.769531-80.445312-27.769531-39.539063 0-75.910156 15.832031-102.414063 44.578125-26.1875 28.410156-40.613281 67.222656-40.613281 109.292969 0 43.300781 16.136719 82.9375 50.78125 124.742187 30.992188 37.394531 75.535156 75.355469 127.117188 119.3125 17.613281 15.011719 37.578124 32.027344 58.308593 50.152344 5.476563 4.796875 12.503907 7.4375 19.792969 7.4375 7.285156 0 14.316406-2.640625 19.785156-7.429687 20.730469-18.128907 40.707032-35.152344 58.328125-50.171876 51.574219-43.949218 96.117188-81.90625 127.109375-119.304687 34.644532-41.800781 50.777344-81.4375 50.777344-124.742187 0-42.066407-14.425781-80.878907-40.617188-109.289063zm0 0"
        />
      </symbol>
    </svg>